<?xml version="1.0" encoding="utf-8"?>
<!-- Generator: Adobe Illustrator 23.1.0, SVG Export Plug-In . SVG Version: 6.00 Build 0)  -->
<svg version="1.1" id="Capa_1" xmlns="http://www.w3.org/2000/svg" xmlns:xlink="http://www.w3.org/1999/xlink" x="0px" y="0px"
	 viewBox="0 0 56 56" style="enable-background:new 0 0 56 56;" xml:space="preserve">
<style type="text/css">
	.st0{fill:#FFFFFF;}
</style>
<path class="st0" d="M47.55,42.57l-9.14-9.14c1.53-2.58,2.42-5.58,2.42-8.8c0-9.57-7.76-17.34-17.34-17.34
	c-9.57,0-17.34,7.76-17.34,17.34s7.76,17.34,17.34,17.34c3.52,0,6.78-1.05,9.52-2.85l9,9L47.55,42.57z M14,24.63
	c0-5.24,4.25-9.5,9.5-9.5c5.24,0,9.5,4.25,9.5,9.5c0,5.24-4.25,9.5-9.5,9.5C18.25,34.13,14,29.88,14,24.63z"/>
<g>
	<circle class="st0" cx="45.12" cy="45.68" r="3.92"/>
</g>
</svg>
