<?xml version="1.0" encoding="utf-8"?>
<!-- Generator: Adobe Illustrator 23.1.0, SVG Export Plug-In . SVG Version: 6.00 Build 0)  -->
<svg version="1.1" id="Layer_1" xmlns="http://www.w3.org/2000/svg" xmlns:xlink="http://www.w3.org/1999/xlink" x="0px" y="0px"
	 viewBox="0 0 184 178" style="enable-background:new 0 0 184 178;" xml:space="preserve">
<style type="text/css">
	.st0{opacity:0.22;}
	.st1{opacity:0.77;}
	.st2{fill:#4A6900;}
	.st3{fill:#86B417;}
	.st4{fill:#B0E85E;}
	.st5{fill:#99D43D;}
	.st6{fill:#CEE88C;}
	.st7{fill:#669C00;}
</style>
<g>
	<path class="st0" d="M162.15,94.59l0-9.86c0-0.04,0-0.16,0-0.2v-0.27c0-0.19-0.01-0.37-0.02-0.61c-0.48-13.42-11-24.24-24.76-25.82
		c-5.27-16.38-21.17-27.67-39.3-27.67c-12.58,0-24.54,5.57-32.31,14.98c-2.39-0.46-4.83-0.69-7.26-0.69
		c-20.21,0-36.66,15.69-36.66,34.99l0,0.12c0,0.02,0,0.03,0,0.04l0,9.83c0,7.41,2.38,14.44,6.89,20.42
		c-0.26,1.3-0.41,2.63-0.46,3.97c-0.02,0.15-0.03,0.31-0.03,0.51l0,0.19c0,0.04-0.01,0.14-0.01,0.19l0,0.14l0,9.86
		c0,14.35,12.22,26.02,27.23,26.02c5.15,0,10.17-1.4,14.48-3.99l2.18,10.41c0.61,3.52,4.49,6.18,9.03,6.18h20.56
		c4.54,0,8.42-2.66,9.01-6.09l2.38-11.44c4.13,2.3,8.78,3.5,13.65,3.5c15.02,0,27.24-11.67,27.24-26.02l0-9.76
		C159.2,108.49,162.15,101.66,162.15,94.59z"/>
	<path class="st1" d="M159.65,81.59c0-0.02,0-0.04,0-0.05c0-0.17,0-0.26,0-0.27c0-0.18-0.01-0.35-0.02-0.52
		c-0.45-12.63-10.97-22.83-24.17-23.56c-4.3-15.82-19.41-27.52-37.39-27.52c-12.89,0-24.3,6.01-31.31,15.25
		c-2.65-0.62-5.41-0.96-8.26-0.96c-18.87,0-34.16,14.54-34.16,32.49c0,0.05,0,0.1,0,0.14c0,0.01,0,0.02,0,0.02c0,0.15,0,9.68,0,9.83
		c0,7.46,2.65,14.32,7.09,19.81c-0.39,1.54-0.61,3.14-0.66,4.78c-0.01,0.08-0.02,0.18-0.02,0.31c0,0.01,0,0.11,0,0.28
		c0,0.03,0,0.07,0,0.1c0,0.05,0,0.09,0,0.14c0,2.09,0,9.74,0,9.86c0,12.99,11.07,23.52,24.73,23.52c6.18,0,11.82-2.16,16.15-5.71
		l2.98,14.21c0.4,2.31,3.33,4.1,6.57,4.1h20.56c3.23,0,6.17-1.79,6.57-4.1l3.12-15.01v-0.01c4.22,3.18,9.55,5.09,15.35,5.09
		c13.66,0,24.74-10.53,24.74-23.52c0-0.13,0-8.88,0-9.85c0-0.05,0-0.1,0-0.15c0-0.28-0.01-0.56-0.02-0.84
		c5.02-4.46,8.16-10.8,8.16-17.85c0-0.09,0-8.12,0-9.96C159.65,81.62,159.65,81.61,159.65,81.59z"/>
	<path class="st2" d="M159.65,88.59c0-0.1,0-10.23,0-10.33c0-8.71-10.8-13.34-24.19-14.08c-4.3-15.82-19.41-27.52-37.39-27.52
		c-12.89,0-24.3,6.01-31.31,15.25c-2.65-0.62-5.41-0.96-8.26-0.96c-18.71,0-34.15,10.47-34.15,22.65c0,0.15,0,9.68,0,9.83
		c0,8.99,3.84,17.12,10.04,23c-2.23,3.46-3.63,0.03-3.63,1.89c0,0.14,0,10.24,0,10.38c0,12.99,11.07,23.52,24.73,23.52
		c13.66,0,24.73-10.53,24.73-23.52c0-3.14-0.65-6.14-1.83-8.88c1.34-0.91,2.6-1.91,3.78-2.99c4.85,2.09,10.23,3.26,15.9,3.26
		c1.79,0,3.55-0.13,5.28-0.35c-0.84,2.36-1.3,4.89-1.3,7.52c0,12.99,11.07,23.52,24.73,23.52c13.66,0,24.74-10.53,24.74-23.52
		c0-0.14,0-9.82,0-9.96c0-1.17-1.1,1.62-1.98,0.71C155.68,103.57,159.65,96.52,159.65,88.59z"/>
	<path class="st3" d="M111.43,111.59h3.53c-0.58-6.55-3.53-16.92-7.56-16.92H75.52c-4.03,0-6.98,10.37-7.56,16.92h3.64v24.79
		l3.01,14.35c0.4,2.31,3.33,4.1,6.57,4.1h20.56c3.23,0,6.17-1.79,6.57-4.1l3.12-15.01V111.59z"/>
	<path class="st3" d="M159.65,78.59c0-13.02-10.7-23.66-24.19-24.41c-4.3-15.82-19.41-27.52-37.39-27.52
		c-12.89,0-24.3,6.01-31.31,15.25c-2.65-0.62-5.41-0.96-8.26-0.96c-18.87,0-34.16,14.54-34.16,32.49c0,8.99,3.84,17.12,10.04,23
		c-2.3,3.57-3.64,7.78-3.64,12.28c0,12.99,11.07,23.52,24.73,23.52c13.66,0,24.73-10.53,24.73-23.52c0-3.14-0.65-6.14-1.83-8.88
		c1.34-0.91,2.6-1.91,3.78-2.99c4.85,2.09,10.23,3.26,15.9,3.26c1.79,0,3.55-0.13,5.28-0.35c-0.84,2.36-1.3,4.89-1.3,7.52
		c0,12.99,11.07,23.52,24.73,23.52c13.66,0,24.74-10.53,24.74-23.52c0-3.28-0.71-6.41-1.99-9.25
		C155.68,93.57,159.65,86.52,159.65,78.59z"/>
	<path class="st4" d="M146.66,94.08c5.15-3.74,8.1-9.38,8.1-15.48c0-10.34-8.6-18.92-19.57-19.53c-2.11-0.12-3.9-1.57-4.45-3.6
		c-3.82-14.07-17.25-23.9-32.67-23.9c-10.83,0-21.08,4.98-27.42,13.31c-1.17,1.54-3.14,2.24-5.02,1.8
		c-2.34-0.55-4.74-0.83-7.13-0.83c-16.14,0-29.26,12.38-29.26,27.59c0,7.34,3.02,14.25,8.51,19.45c1.71,1.62,2.02,4.22,0.75,6.2
		c-1.87,2.9-2.86,6.23-2.86,9.63c0,10.27,8.9,18.63,19.84,18.63c7.01,0,13.57-3.53,17.12-9.21c2.78-4.43,12.83-5.37,20.77-5.37
		c13.59,0,15.75,3.17,16.67,4.53c3.67,5.4,9.93,8.62,16.73,8.62c10.94,0,19.84-8.36,19.84-18.63c0-2.51-0.52-4.95-1.56-7.24
		C144.12,97.93,144.78,95.44,146.66,94.08z"/>
	<path class="st4" d="M108.31,140.73c-0.4,2.31-3.33,4.1-6.57,4.1H81.18c-3.23,0-6.17-1.79-6.57-4.1l-6.63-35.23
		c-0.83-4.76,2.52-20.83,7.54-20.83h31.88c5.01,0,8.36,16.07,7.54,20.83L108.31,140.73z"/>
	<path class="st5" d="M101.09,138.42c-0.23,1.32-0.93,2.35-2.77,2.35H84.61c-1.85,0-2.55-1.03-2.78-2.35l-5.66-33.66
		c-0.98-9.78,5.74-15.98,13.9-15.98h3.72c8.81,0,14.73,6.86,13.37,15.98L101.09,138.42z"/>
	<path class="st6" d="M86.81,135.39h9.33l5.71-31.5c0.41-2.78-0.2-5.34-1.72-7.12c-1.45-1.68-3.7-2.61-6.34-2.61h-3.72
		c-2.63,0-4.94,0.95-6.5,2.68c-1.62,1.79-2.33,4.29-2.06,7.26L86.81,135.39z"/>
	<path class="st2" d="M113.11,65.8l-6.17,20.4l16.42-10.76C120.63,71.63,117.15,68.35,113.11,65.8z M71.65,65.72l14.23,17.64
		l-0.41-22.93C80.45,61.31,75.77,63.14,71.65,65.72z M129.84,93.68c-0.22-4.07-1.16-7.95-2.7-11.54l-12.39,13.52L129.84,93.68z
		 M92.11,59.83l5.37,17.85l9.05-15.2c-4.38-1.71-9.18-2.65-14.21-2.65C92.25,59.83,92.18,59.83,92.11,59.83z M113.27,114.21
		l7.62,4.54c4.37-4.86,7.39-10.84,8.51-17.44l-14.89,5.46L113.27,114.21z M56.55,106.53c1.52,4.49,3.95,8.59,7.08,12.1l6.03-3.98
		l-1.05-6.22L56.55,106.53z M56.93,83.53c-1.41,3.76-2.19,7.81-2.19,12.04c0,1.46,0.1,2.9,0.28,4.31l13.12-2.33L56.93,83.53z
		 M59.48,78.2l12.22,4.92l-5.55-13.18C63.52,72.36,61.27,75.14,59.48,78.2z"/>
	<path class="st7" d="M74.42,69.15L85.8,83.24l-0.32-17.82C81.54,66.12,77.83,67.39,74.42,69.15z M113.11,70.8l-4.28,14.16
		l11.88-7.78C118.49,74.74,115.94,72.59,113.11,70.8z M129.2,93.76c-0.47-2.29-1.16-4.51-2.06-6.63l-7.18,7.84L129.2,93.76z
		 M114.03,114.66l6.86,4.09c3.11-3.46,5.52-7.49,7.06-11.91l-13.44,4.93L114.03,114.66z M62.16,79.28l6.99,2.82l-3.02-7.16
		C64.69,76.28,63.37,77.73,62.16,79.28z M97.48,77.68l6.58-11.05c-3.3-1.04-6.8-1.65-10.44-1.77L97.48,77.68z M58.91,111.91
		c1.31,2.42,2.89,4.68,4.72,6.73l5.27-3.48l-0.29-1.72L58.91,111.91z M56.93,88.53c-1.13,3-1.84,6.19-2.09,9.5
		c0.05,0.62,0.1,1.24,0.18,1.85l9.62-1.71L56.93,88.53z"/>
</g>
</svg>
