<?xml version="1.0" encoding="utf-8"?>
<!-- Generator: Adobe Illustrator 23.1.0, SVG Export Plug-In . SVG Version: 6.00 Build 0)  -->
<svg version="1.1" id="Layer_1" xmlns="http://www.w3.org/2000/svg" xmlns:xlink="http://www.w3.org/1999/xlink" x="0px" y="0px"
	 viewBox="0 0 184 178" style="enable-background:new 0 0 184 178;" xml:space="preserve">
<style type="text/css">
	.st0{opacity:0.22;}
	.st1{opacity:0.77;}
	.st2{fill:#BF6B00;}
	.st3{fill:#FFCB1B;}
	.st4{fill:#F0EAC7;}
	.st5{fill:#FFE094;}
	.st6{fill:#AD542E;}
</style>
<g>
	<path class="st0" d="M156.96,121.67c0.17-1.37,0.28-2.82,0.32-4.3c0.31-10.97-2.92-20.1-9.78-33.51
		c-3.02-5.91-5.46-14.33-7.6-21.76l-0.17-0.6c-2.59-8.96-7.18-16.78-13.65-23.24C115.53,27.7,101.17,22.08,85.8,22.49
		c-15.33,0.42-29.91,6.79-41.02,17.9l-0.14,0.14C33.51,51.66,27.14,66.24,26.71,81.58c-0.06,2.12,0.01,4.34,0.21,6.6
		c-0.11,1.28-0.18,2.36-0.21,3.4c-0.43,15.39,5.17,29.69,15.76,40.29c6.47,6.47,14.29,11.06,23.25,13.64l0.64,0.19
		c7.42,2.14,15.82,4.58,21.72,7.59c11.5,5.88,19.04,8.47,28.54,9.56c1.38,0.16,2.78,0.24,4.15,0.24c9.63,0,18.68-3.96,26.18-11.46
		l0.13-0.13c6.7-6.7,9.94-14.36,10.21-24.12C157.34,125.53,157.23,123.66,156.96,121.67z"/>
	<path class="st1" d="M154.79,114.3c0.29-10.38-2.81-19.22-9.51-32.31c-3.13-6.12-5.6-14.66-7.78-22.2l-0.18-0.61
		c-2.47-8.55-6.85-16.01-13.01-22.17c-10.1-10.1-23.76-15.44-38.45-15.03C71.17,22.4,57.2,28.51,46.52,39.18L46.4,39.3
		C35.73,49.98,29.62,63.95,29.21,78.65c-0.06,2.2,0.02,4.38,0.22,6.53c-0.1,1.15-0.18,2.31-0.22,3.47
		c-0.41,14.69,4.93,28.35,15.03,38.45c6.16,6.16,13.62,10.54,22.17,13.01l0.61,0.17c7.54,2.18,16.08,4.65,22.2,7.78
		c11.27,5.77,18.61,8.26,27.69,9.3c10.07,1.16,19.92-2.16,28.27-10.51l0.13-0.13c7.02-7.02,9.26-14.38,9.48-22.42
		c0.05-1.86-0.08-3.73-0.35-5.62C154.64,117.24,154.75,115.79,154.79,114.3z"/>
	<path class="st2" d="M66.42,137.1l0.61,0.17c7.54,2.18,16.08,4.65,22.2,7.78c11.27,5.77,18.61,8.26,27.69,9.3
		c10.07,1.16,19.92-2.16,28.27-10.51l0.13-0.13c7.02-7.02,9.26-14.38,9.48-22.42c0.29-10.38-2.81-19.22-9.51-32.31
		c-3.13-6.12-5.6-14.66-7.78-22.2l-0.18-0.61c-2.47-8.55-6.85-16.01-13.01-22.17c-10.1-10.1-23.76-15.44-38.45-15.03
		C71.17,29.4,57.2,35.51,46.52,46.18L46.4,46.3C35.73,56.98,29.62,70.95,29.21,85.65c0,0,0,0,0,0
		c-0.41,14.69,4.93,28.35,15.03,38.45C50.41,130.25,57.87,134.63,66.42,137.1z"/>
	<path class="st3" d="M66.42,127.1l0.61,0.17c7.54,2.18,16.08,4.65,22.2,7.78c11.27,5.77,18.61,8.26,27.69,9.3
		c10.07,1.16,19.92-2.16,28.27-10.51l0.13-0.13c7.02-7.02,9.26-14.38,9.48-22.42c0.29-10.38-2.81-19.22-9.51-32.31
		c-3.13-6.12-5.6-14.66-7.78-22.2l-0.18-0.61c-2.47-8.55-6.85-16.01-13.01-22.17c-10.1-10.1-23.76-15.44-38.45-15.03
		C71.17,19.4,57.2,25.51,46.52,36.18L46.4,36.3C35.73,46.98,29.62,60.95,29.21,75.65c0,0,0,0,0,0
		c-0.41,14.69,4.93,28.35,15.03,38.45C50.41,120.25,57.87,124.63,66.42,127.1z"/>
	<path class="st4" d="M49.55,39.52c-9.82,9.82-15.46,22.71-15.83,36.25c-0.37,13.44,4.5,25.92,13.71,35.14
		c5.62,5.62,12.43,9.61,20.24,11.87l0.6,0.17c7.76,2.25,16.51,4.77,23,8.1c10.86,5.56,17.82,7.88,26.15,8.84
		c1.12,0.13,2.25,0.19,3.35,0.19c7.84,0,14.98-3.17,21.23-9.41l0.13-0.13c5.49-5.5,7.94-11.29,8.16-19.36
		c0.26-9.32-2.62-17.62-9.02-30.13c-3.33-6.51-5.86-15.27-8.09-23l-0.17-0.6c-2.26-7.82-6.25-14.63-11.87-20.24
		c-8.86-8.86-20.83-13.74-33.7-13.74c-0.48,0-0.96,0.01-1.44,0.02c-13.54,0.38-26.42,6.01-36.29,15.88L49.55,39.52z"/>
	<path class="st5" d="M51.56,37.59c-0.63,0.57-1.25,1.16-1.85,1.77l-0.16,0.16c-0.59,0.59-1.17,1.2-1.73,1.81l91.65,91.65
		c0.86-0.72,1.7-1.49,2.53-2.32l0.13-0.13c0.4-0.4,0.78-0.81,1.15-1.22L51.56,37.59z"/>
	<path class="st5" d="M106.73,75.45c0,11.06-9.42,20.02-21.05,20.02c-11.63,0-21.05-8.96-21.05-20.02
		c0-11.06,9.43-20.02,21.05-20.02C97.31,55.43,106.73,64.4,106.73,75.45z"/>
	<path class="st6" d="M80.35,76.14c-4.38-0.63-6.61,1.63-6.84,4.79c-0.23,3.16,1.63,6.01,6.01,6.65c4.38,0.63,9.8-3.64,9.85-4.35
		C89.41,82.64,84.73,76.77,80.35,76.14z M91.05,63.3c-3.15,0.28-5.38,2.55-4.68,6.92c0.7,4.37,6.65,8.95,7.22,8.9
		c0.71-0.06,4.9-5.55,4.2-9.91C97.08,64.83,94.2,63.02,91.05,63.3z"/>
</g>
</svg>
