<svg xmlns="http://www.w3.org/2000/svg" width="87" height="75" viewBox="0 0 87.5 75">
  <defs><style>.cls-1,.cls-2{fill:none;stroke:#000;stroke-miterlimit:10;stroke-width:2px;}.cls-2{stroke-linecap:round;}</style></defs><title>phone_portrait</title><g id="Calque_2" data-name="Calque 2"><g id="Calque_1-2" data-name="Calque 1"><g id="Calque_2-2" data-name="Calque 2"><g id="Calque_1-2-2" data-name="Calque 1-2"><path class="cls-1" d="M86.5,60.13V14.87A2.33,2.33,0,0,0,84,12.75H3.5A2.33,2.33,0,0,0,1,14.87V60.13a2.33,2.33,0,0,0,2.5,2.12H84A2.33,2.33,0,0,0,86.5,60.13ZM11.5,37.5a2.25,2.25,0,1,1,2.25,2.25A2.25,2.25,0,0,1,11.5,37.5Z"/><line class="cls-2" x1="7.25" y1="74" x2="80.25" y2="1"/></g></g><rect class="cls-1" x="24.65" y="19.29" width="55.6" height="37.31"/></g></g></svg>
